<!-- Tofu composed of two separate path components -->
<svg width="40" height="44" xmlns="http://www.w3.org/2000/svg">
  <path d="M20.3 12c1.7 0 3.2.5 4.2 1.4 1.1 1 1.7 2.1 1.7 3.6 0 .8-.2 1.6-.6 2.4-.4.7-1.1 1.4-2 2.2L22.3 23c-.3.4-.4.9-.4 1.4v1h-3.5v-1.3c0-.7.1-1.4.5-2 .3-.6 1-1.2 1.8-2 .7-.7 1.2-1.2 1.4-1.6.3-.4.4-.8.4-1.2a2 2 0 0 0-.6-1.6c-.5-.4-1-.6-1.9-.6-.6 0-1.2.1-1.5.4-.4.2-.7.6-1 1l-.3 1-1.5-.6-1.5-.5.5-1.2c.3-1 1-1.8 2-2.3.9-.6 2-1 3.6-1Zm2.2 17.6c0 .6-.2 1.2-.7 1.6-.4.5-1 .7-1.6.7-.6 0-1.2-.2-1.6-.7-.5-.4-.7-1-.7-1.6 0-.6.2-1.2.7-1.6a2.3 2.3 0 0 1 4 1.6Z"/>
  <path fill-rule="evenodd" clip-rule="evenodd" d="M0 12.7C0 5.7 5.6 0 12.5 0h15a12.8 12.8 0 0 1 8.6 21.9 12.8 12.8 0 0 1-8.6 21.9h-15a12.8 12.8 0 0 1-8.6-21.9A12.8 12.8 0 0 1 0 12.7ZM6.4 20a9.6 9.6 0 0 1-3.2-7.2c0-5.2 4.1-9.5 9.3-9.5h15c5.2 0 9.3 4.3 9.3 9.5A9.6 9.6 0 0 1 30 22a9.6 9.6 0 0 1 7 9.2c0 5.2-4.2 9.5-9.4 9.5h-15A9.6 9.6 0 0 1 10 21.9c-1.4-.4-2.6-1-3.7-2Z"/>
</svg>
