<svg width="45" height="48" viewBox="0 0 45 48" fill="none" xmlns="http://www.w3.org/2000/svg">
<g clip-path="url(#clip0_1_9)">
<path fill-rule="evenodd" clip-rule="evenodd" d="M2 14.7C2 7.7 7.6 2 14.5 2H29.5C32.0034 2.07738 34.4291 2.8875 36.4766 4.32999C38.524 5.77248 40.1033 7.78395 41.0188 10.1152C41.9343 12.4465 42 15.2491 42 17.5C42 19.7509 42 21.5954 42 24.1C42 26.6046 42 27.5 42 30.2805C42 33.2 41.9343 35.3535 41.0188 37.6848C40.1033 40.0161 38.524 42.0275 36.4766 43.47C34.4291 44.9125 32.0034 45.7226 29.5 45.8H14.5C11.9966 45.7226 9.57094 44.9125 7.52346 43.47C5.47599 42.0275 3.89669 40.0161 2.98121 37.6848C2.06573 35.3535 2.00001 33.161 2.00001 30.2805C2.00001 27.4 1.99998 26.5 2 24.5C2.00002 22.5 2 22.2 2.00001 20C1.99999 18 1.99993 16.4167 2 14.7ZM5.2 20.5C5.2294 19.3 5.2588 19.9 5.2294 18.5C5.2 17.1 5.19371 16.1582 5.2 14.8C5.2 9.6 9.3 5.3 14.5 5.3H29.5C34.7 5.3 38.8 9.6 38.8 14.8C38.8037 16.8601 38.8 18.2783 38.8 20.2783C38.8 22.2783 38.8798 22.1274 38.9188 24.2C38.9578 26.2726 38.9188 24.9718 38.9188 27.4C38.9188 29.8282 38.9911 31.1142 39 33.2C39 38.4 34.8 42.7 29.6 42.7H14.6C12.3059 42.6668 10.0995 41.8131 8.38056 40.2935C6.6616 38.7739 5.54372 36.6889 5.2294 34.4161C4.91509 32.1434 5.2588 31.1095 5.2294 28.7547C5.2 26.4 5.17061 26.5 5.2 24.5C5.2294 22.5 5.2294 24.3757 5.2294 22.6878C5.2294 21 5.17061 21.7 5.2 20.5ZM22.3 14C24 14 25.5 14.5 26.5 15.4C27.6 16.4 28.2 17.5 28.2 19C28.2 19.8 28 20.6 27.6 21.4C27.2 22.1 26.5 22.8 25.6 23.6L24.3 25C24 25.4 23.9 25.9 23.9 26.4V27.4H20.4V26.1C20.4 25.4 20.5 24.7 20.9 24.1C21.2 23.5 21.9 22.9 22.7 22.1C23.4 21.4 23.9 20.9 24.1 20.5C24.4 20.1 24.5 19.7 24.5 19.3C24.5244 19.0055 24.4832 18.7093 24.3795 18.4327C24.2757 18.156 24.112 17.9058 23.9 17.7C23.4 17.3 22.9 17.1 22 17.1C21.4 17.1 20.8 17.2 20.5 17.5C20.1 17.7 19.8 18.1 19.5 18.5L19.2 19.5L17.7 18.9L16.2 18.4L16.7 17.2C17 16.2 17.7 15.4 18.7 14.9C19.6 14.3 20.7 13.9 22.3 13.9V14ZM24.5 31.6C24.5 32.2 24.3 32.8 23.8 33.2C23.4 33.7 22.8 33.9 22.2 33.9C21.6 33.9 21 33.7 20.6 33.2C20.1 32.8 19.9 32.2 19.9 31.6C19.9 31 20.1 30.4 20.6 30C20.9154 29.6536 21.329 29.4118 21.7856 29.307C22.2421 29.2021 22.7198 29.2391 23.1548 29.4131C23.5897 29.587 23.9612 29.8897 24.2194 30.2805C24.4777 30.6713 24.6105 31.1317 24.6 31.6H24.5Z" fill="black"/>
</g>
<defs>
<clipPath id="clip0_1_9">
<rect width="40" height="44" fill="white" transform="translate(2 2)"/>
</clipPath>
</defs>
</svg>
